<svg xmlns="http://www.w3.org/2000/svg" viewBox="0 0 32 32">
  <path fill="#25D366" d="M19.11 17.47c-.2-.1-1.2-.6-1.39-.67-.19-.07-.33-.1-.47.1-.14.2-.54.67-.66.8-.12.13-.25.15-.45.05-.2-.1-.86-.32-1.63-1.03-.6-.53-1-1.18-1.12-1.38-.12-.2-.01-.3.09-.4.09-.09.2-.25.3-.37.1-.12.13-.2.2-.33.07-.13.03-.25-.02-.35-.05-.1-.47-1.13-.64-1.55-.17-.4-.34-.35-.47-.36-.12-.01-.26-.01-.4-.01-.14 0-.36.05-.55.25-.19.2-.72.7-.72 1.7s.74 1.97.84 2.1c.1.13 1.46 2.22 3.54 3.11.5.22.89.35 1.2.45.5.16.95.14 1.31.08.4-.06 1.2-.49 1.37-.96.17-.47.17-.88.12-.96-.05-.08-.18-.13-.38-.23z"/>
  <path fill="#25D366" d="M16 3C9.37 3 4 8.37 4 15c0 2.12.55 4.19 1.6 6.02L4 29l8.23-1.56A11.93 11.93 0 0 0 16 27c6.63 0 12-5.37 12-12S22.63 3 16 3zm0 21.82c-1.86 0-3.68-.5-5.28-1.46l-.38-.23-4.88.93.93-4.76-.25-.39A9.83 9.83 0 0 1 6.18 15C6.18 9.58 10.58 5.18 16 5.18S25.82 9.58 25.82 15 21.42 24.82 16 24.82z"/>
</svg>
